<?xml version="1.0" encoding="utf-8"?>
<!-- Generator: Adobe Illustrator 19.1.1, SVG Export Plug-In . SVG Version: 6.00 Build 0)  -->
<svg version="1.1" id="Layer_1" xmlns="http://www.w3.org/2000/svg" xmlns:xlink="http://www.w3.org/1999/xlink" x="0px" y="0px"
	 viewBox="0 0 1280 800" style="enable-background:new 0 0 1280 800;" xml:space="preserve">
<style type="text/css">
	.st0{fill:#FFFFFF;}
</style>
<g>
	<g>
		<path class="st0" d="M597,555c-53.3,0-106.7,0-160,0c0-103,0-206,0-309c136.3,0,272.7,0,409,0c0,103,0,206,0,309
			c-82.7,0-165.3,0-248,0c9.1-2.6,13.8-9.3,14.8-18.1c1.5-13,1.9-26.2,3.3-39.2c0.6-5.6,2.4-11.1,3.3-15.2c8.5,0,15.4,0,22.4,0
			c19.3-0.2,36-8.8,53.1-16.1c11.7-5,22.9-11.4,34.2-17.4c3.2-1.7,5-1.5,7.5,1.4c4.4,5.2,9.3,10,14.4,14.4c2.3,2,3,3.5,2,6.3
			c-2.7,7.7-5.6,15.3-7.7,23.2c-2,7.6-5.6,13.7-12.4,17.9c-5.7,3.5-7.6,9.5-8.8,15.6c-0.5,2.4,0.5,3.9,3.2,3.7
			c7.1-0.6,14.3-0.9,21.4-1.7c1.8-0.2,4.3-1.5,5.1-3c3.8-7.8,7-15.8,10.6-23.6c2.8-6.1,5.8-12.2,8.8-18.2c0.4,0.2,0.9,0.4,1.3,0.6
			c-2.6,15.1-4.3,30.4-17.8,41.3c-3.7,3-5.2,8.6-7.6,13.1c-1.6,3-0.4,5.1,2.5,6.3c8.5,3.5,17.3,5.1,26,1.1c1.8-0.8,3.6-2.7,4.4-4.6
			c6.5-15.6,13.1-31.2,19.1-47c4.8-12.5,9-25.3,13.3-38c0.3-1-0.5-3-1.4-3.7c-7-5.1-9.4-11.9-6.1-19.7c1.9-4.6,4-9.2,6.6-13.4
			c7.1-11,11-22.7,9.3-35.9c-0.6-4.4-1.7-8.8-2.1-13.3c-0.2-1.6,0.4-3.8,1.4-5c13.7-15.2,20.3-32.9,19.9-53.3
			c-0.2-12.7-3.5-24.8-9.1-35.9c-3.2-6.4-7.4-13.5-13.1-17.3c-16-10.7-33.3-16.6-51.2-3.2c-1.9,1.4-3.2,3.6-4.8,5.5
			c2.4,0.9,4.7,1.9,7.1,2.7c0.7,0.2,1.6-0.1,2.5-0.3c18.2-4,31.3,7.3,37.9,21.6c6.3,13.5,6.5,28.2,2.7,42.5
			c-1.8,6.9-5.3,13.2-9.8,16.7c-9.9-2.1-18.8-5.8-27.3-5.3c-11.8,0.6-23.5,4.1-35.2,7c-10.3,2.5-20.5,5.7-30.7,8.9
			c-17.7,5.4-36.1,7.3-54.3,10.5c-23.8,4.2-46.1,1.8-66.8-10.9c-4.5-2.8-8.8-6-12.5-9.8c-11.5-11.8-17.9-26.7-23.7-41.8
			c-2.8-7.4-7.1-13.8-13.3-18.2c-15.1-10.8-31.5-10.4-46.4,1.5c-14.2,11.4-27.6,24.1-46.6,27.6c-5.7,1.1-7.6,4.8-7.4,10.8
			c0.3,9.8,3,18.9,10,25.9c7.1,7.1,15.2,12.5,26.2,10.2c8.7-1.9,17.1-1.3,25.5,2c5.7,2.2,11.6,4.1,18,2c0.8-0.3,2.5,0.8,3.1,1.7
			c8.3,11.1,11.9,24.1,13.9,37.5c1.2,8,0.2,16.2,0.6,24.4c0.7,16.5,6.1,30.2,20.9,39.6c19,12.1,24.4,38.8,6.7,55.9
			c-3.3,3.1-5.6,7.2-8.3,10.9c-2.2,3-0.5,4.7,2.2,5.6c3.1,1.1,6.4,1.7,9.5,2.5c-0.5,6.9,0.1,7.5,6.6,8.2
			C582.2,553.2,589.6,554.1,597,555z"/>
		<path d="M597,555c-7.4-0.9-14.8-1.8-22.2-2.6c-6.4-0.7-7.1-1.4-6.6-8.2c-3.1-0.8-6.4-1.5-9.5-2.5c-2.7-0.9-4.4-2.6-2.2-5.6
			c2.7-3.7,5.1-7.8,8.3-10.9c17.7-17.1,12.3-43.8-6.7-55.9c-14.8-9.4-20.2-23.1-20.9-39.6c-0.3-8.1,0.6-16.4-0.6-24.4
			c-1.9-13.4-5.5-26.4-13.9-37.5c-0.7-0.9-2.3-1.9-3.1-1.7c-6.4,2.1-12.3,0.2-18-2c-8.4-3.3-16.8-3.8-25.5-2
			c-10.9,2.3-19.1-3.1-26.2-10.2c-7-7-9.7-16.1-10-25.9c-0.2-6,1.7-9.7,7.4-10.8c19-3.5,32.4-16.2,46.6-27.6
			c14.9-12,31.4-12.3,46.4-1.5c6.1,4.4,10.5,10.8,13.3,18.2c5.7,15.1,12.2,30,23.7,41.8c3.7,3.8,8,7.1,12.5,9.8
			c20.7,12.7,43,15.2,66.8,10.9c18.2-3.2,36.6-5.1,54.3-10.5c10.2-3.1,20.3-6.3,30.7-8.9c11.6-2.9,23.3-6.3,35.2-7
			c8.6-0.5,17.4,3.2,27.3,5.3c4.5-3.5,8-9.9,9.8-16.7c3.8-14.4,3.6-29.1-2.7-42.5c-6.7-14.3-19.8-25.6-37.9-21.6
			c-0.8,0.2-1.7,0.5-2.5,0.3c-2.4-0.8-4.7-1.8-7.1-2.7c1.6-1.8,2.9-4.1,4.8-5.5c17.9-13.4,35.2-7.5,51.2,3.2
			c5.7,3.8,9.8,10.9,13.1,17.3c5.7,11.2,8.9,23.2,9.1,35.9c0.4,20.4-6.2,38.1-19.9,53.3c-1.1,1.2-1.6,3.4-1.4,5
			c0.4,4.5,1.5,8.8,2.1,13.3c1.7,13.2-2.2,24.9-9.3,35.9c-2.7,4.2-4.7,8.8-6.6,13.4c-3.3,7.8-0.9,14.5,6.1,19.7
			c0.9,0.7,1.7,2.7,1.4,3.7c-4.3,12.7-8.5,25.5-13.3,38c-6.1,15.8-12.6,31.4-19.1,47c-0.8,1.8-2.6,3.8-4.4,4.6
			c-8.8,3.9-17.5,2.4-26-1.1c-3-1.2-4.1-3.3-2.5-6.3c2.4-4.5,4-10.1,7.6-13.1c13.5-10.9,15.1-26.2,17.8-41.3
			c-0.4-0.2-0.9-0.4-1.3-0.6c-2.9,6.1-6,12.1-8.8,18.2c-3.6,7.9-6.8,15.9-10.6,23.6c-0.7,1.5-3.2,2.8-5.1,3
			c-7.1,0.8-14.3,1.2-21.4,1.7c-2.8,0.2-3.7-1.3-3.2-3.7c1.3-6.1,3.1-12.1,8.8-15.6c6.8-4.2,10.4-10.3,12.4-17.9
			c2.1-7.9,5-15.5,7.7-23.2c1-2.8,0.3-4.3-2-6.3c-5.1-4.4-10.1-9.2-14.4-14.4c-2.5-3-4.3-3.1-7.5-1.4c-11.3,6-22.5,12.3-34.2,17.4
			c-17,7.3-33.8,16-53.1,16.1c-6.9,0.1-13.9,0-22.4,0c-0.9,4.1-2.7,9.6-3.3,15.2c-1.4,13-1.8,26.2-3.3,39.2
			c-1,8.8-5.7,15.4-14.8,18.1C597.7,555,597.3,555,597,555z M763.9,542.2c0.4,0.5,0.7,1,1.1,1.5c3.1-0.3,6.4,0.1,9.2-1
			c2.3-0.9,4.6-3.2,5.6-5.5c4.5-10.3,8.6-20.8,12.6-31.3c5.5-14.4,10.8-28.9,15.9-43.5c0.5-1.4-0.1-4-1.2-5
			c-4.2-4.1-6.3-8.8-6.4-14.6c-0.2-8.4,5-14.6,8.3-21.6c4.2-8.8,9.7-17.4,9.3-27.6c-0.3-6.9-1.3-13.9-3-20.6
			c-4.5-18.2-23.7-31-41.4-28.3c-23.3,3.6-45.8,10-68.1,17.4c-6,2-12.1,3.8-18.3,4.7c-15.5,2.2-31.1,4-46.6,5.5
			c-23.3,2.3-44.2-4-62.4-18.6c-4.8-3.9-9.3-8.8-12.4-14.2c-5.8-9.9-10.3-20.4-15.6-30.6c-3.3-6.3-6.2-13.2-10.8-18.4
			c-9.2-10.3-27.3-9.2-35.3-4.3c-7.2,4.4-13.4,10.3-20.4,15.1c-9.8,6.7-19.8,13-30.2,19.8c1.5,5.8-3.4,8.4-8.9,10.5
			c0.4,1.9,0.7,3.5,1.2,5.1c3,8.5,8.6,15.1,17.4,17c9,2,16-2.6,21.1-10.3c0.6-0.9,2-1.2,3.1-1.8c0.4,1.3,1.4,2.8,1,3.8
			c-1.4,3.5-3.3,6.7-4.7,9.4c8.3,1.7,16.7,3.5,25.1,5.1c10.5,2,19.8-0.5,21.6-12.8c0.6-3.9-0.5-8-0.8-12.3c-2.6,0.5-3.9,0.9-5.2,1
			c-7.5,0.8-13.5-3.4-13.2-10.1c0.4-9.5,1.8-18.9,2.9-28.3c0.1-0.7,1.2-1.9,1.8-1.9c0.7,0,1.9,0.9,2.1,1.7c0.4,1.4,0.3,2.9,0.2,4.4
			c-0.7,6.8-1.9,13.5-2.2,20.3c-0.3,7.5,4.9,10.5,11.6,7c2.3-1.2,4.9-3.6,5.6-6c1.7-6.1,2.3-12.6,3.3-18.9c0.3-1.9,0.3-3.8,0.6-6.3
			c7.6,5,4.9,24.7-2.8,34c1,4.9,2.6,9.1,2.5,13.2c-0.1,7.9-3.9,14.2-10.3,18.5c7.4,13.9,14.5,27.3,15.2,42.9
			c0.4,8.5,0.1,17,0.5,25.5c0.7,15.4,6.5,27.8,20.8,35.3c-0.7-5.3-1.4-10.4-2.1-15.5c0.8-0.2,1.6-0.5,2.4-0.7
			c0.8,1.8,2.1,3.5,2.3,5.3c0.8,8.4,3.9,15.8,8.7,22.5c0.9,1.2,1.9,2.4,2.4,3.8c3.9,10.6,7.7,21.2,11.3,31.8c3.4,10,0.8,18.3-7,25.1
			c-2.5,2.1-4.5,4.8-7,7.6c4,1.9,5.8,2,7.3-1.6c0.9-2.2,3.5-3.9,5.7-5.3c0.9-0.6,2.5,0.1,3.8,0.2c-0.5,1.4-0.7,3-1.5,4.1
			c-1.1,1.4-2.7,2.4-4.1,3.6c2.9,0.9,5.4,1,7.8,0.6c9.6-1.8,11.6-3.8,13.3-13.4c0.8-4.2,1.6-8.5,1.7-12.8c0.5-19.2,3.9-37.4,12.4-55
			c6-12.4,10.1-25.8,6.7-40.1c-0.2-0.8,0.8-1.9,1.2-2.9c1,0.5,2.5,0.7,2.8,1.4c0.9,2.1,1.5,4.4,1.8,6.7c1.5,12.5-2.5,24-7.1,35.3
			c-1.2,3-2.3,6.1-3.7,9.8c8.8,0,17,1.1,24.6-0.3c9.9-1.8,19.5-5.3,29-8.6c19.3-6.8,37.6-15.6,54.7-27.1c-2.8-10.2-8.2-20.1-4-31.5
			c1.5,1.8,2.5,3.8,2.8,5.9c0.6,4.1,0.1,8.4,1.2,12.3c5.7,19.2,17.4,33.1,36.7,39.7c8.4,2.9,11.9,6.9,11.3,17.5
			c-0.4,8.2-2.9,16.3-4.1,24.5c-1.3,8.6-7,14-13,19.4c-2.1,1.8-4,4-5.4,6.3c-1,1.7-2.2,4.7-1.4,5.8c1,1.4,3.9,1.4,6,2
			c1.8-5.3,3.2-9.9,8.6-11c0.8-0.2,1.8,1.3,2.1,1.6C768.6,537,766.2,539.6,763.9,542.2z M818,363.2c2.8-3.4,5.7-6.4,7.8-9.8
			c13-20.4,14.3-42.3,6.6-64.7c-3.7-10.8-7.9-22.3-19-27.7c-7.4-3.6-16-5.4-24.2-6.6c-4.3-0.6-9,2-13.5,3.2
			c24.3,0.8,40.6,20.8,43.9,38c3.8,19.7,3.5,38.9-11.6,54.7C811.4,354.6,814.4,358.5,818,363.2z M758,468.2
			c-3.3,10.9-6.4,21.2-9.5,31.5c-2.3,7.6-6.6,13.7-13.8,17.5c-3.4,1.8-5.3,4.7-5.5,8.9c3.5,0.7,6.2,1.3,7.1-3.5
			c0.4-2.1,2.6-4,4.4-5.7c0.6-0.6,2.2-0.1,3.4-0.1c-0.3,1.1-0.4,2.4-1.1,3.4c-1,1.5-2.4,2.8-4.2,4.7c8.1,1.3,12.3-1.2,14.5-8
			c1.9-5.8,4.8-11.3,7.3-17c3.6-8.2,7.3-16.3,11.2-24.9C767.4,472.9,763,470.7,758,468.2z M565.5,539.1c8.7,1.4,11.8-4.7,15.5-9
			c4.4-5,3.6-14.1-0.4-20.5c-4,6.5-8.4,13.5-12.7,20.6c-0.4-0.4-0.7-0.8-1.1-1.2c1.5,0.4,3.1,0.8,4.6,1.2c-0.8,1.2-1.7,2.3-2.5,3.5
			C567.9,535.2,566.9,536.8,565.5,539.1z"/>
		<path class="st0" d="M763.9,542.2c2.3-2.6,4.7-5.2,7.5-8.4c-0.3-0.2-1.4-1.7-2.1-1.6c-5.4,1.1-6.8,5.8-8.6,11c-2.1-0.6-5-0.6-6-2
			c-0.8-1,0.4-4.1,1.4-5.8c1.4-2.3,3.4-4.4,5.4-6.3c6-5.4,11.7-10.7,13-19.4c1.2-8.2,3.7-16.3,4.1-24.5c0.5-10.7-2.9-14.6-11.3-17.5
			c-19.3-6.6-31-20.5-36.7-39.7c-1.2-3.9-0.7-8.2-1.2-12.3c-0.3-2.1-1.3-4.1-2.8-5.9c-4.2,11.4,1.2,21.4,4,31.5
			c-17.1,11.6-35.4,20.3-54.7,27.1c-9.5,3.4-19.2,6.8-29,8.6c-7.7,1.4-15.8,0.3-24.6,0.3c1.4-3.7,2.5-6.8,3.7-9.8
			c4.6-11.3,8.7-22.8,7.1-35.3c-0.3-2.3-0.9-4.6-1.8-6.7c-0.3-0.7-1.9-1-2.8-1.4c-0.4,1-1.4,2.1-1.2,2.9c3.4,14.3-0.7,27.7-6.7,40.1
			c-8.5,17.5-11.8,35.8-12.4,55c-0.1,4.3-0.9,8.6-1.7,12.8c-1.7,9.6-3.7,11.6-13.3,13.4c-2.4,0.4-4.8,0.4-7.8-0.6
			c1.4-1.2,3-2.2,4.1-3.6c0.8-1.1,1-2.7,1.5-4.1c-1.3-0.1-3-0.8-3.8-0.2c-2.2,1.4-4.8,3.1-5.7,5.3c-1.5,3.6-3.3,3.5-7.3,1.6
			c2.5-2.7,4.5-5.4,7-7.6c7.9-6.9,10.4-15.1,7-25.1c-3.6-10.7-7.5-21.3-11.3-31.8c-0.5-1.4-1.5-2.6-2.4-3.8
			c-4.8-6.8-7.9-14.2-8.7-22.5c-0.2-1.8-1.5-3.6-2.3-5.3c-0.8,0.2-1.6,0.5-2.4,0.7c0.7,5.1,1.4,10.1,2.1,15.5
			c-14.2-7.5-20.1-20-20.8-35.3c-0.4-8.5-0.1-17-0.5-25.5c-0.7-15.6-7.7-29-15.2-42.9c6.4-4.2,10.2-10.6,10.3-18.5
			c0.1-4.1-1.5-8.3-2.5-13.2c7.7-9.3,10.4-29,2.8-34c-0.2,2.5-0.3,4.4-0.6,6.3c-1,6.3-1.7,12.7-3.3,18.9c-0.6,2.4-3.2,4.8-5.6,6
			c-6.6,3.6-11.9,0.5-11.6-7c0.2-6.8,1.5-13.6,2.2-20.3c0.2-1.4,0.2-3-0.2-4.4c-0.2-0.7-1.4-1.7-2.1-1.7c-0.6,0-1.7,1.1-1.8,1.9
			c-1.1,9.4-2.4,18.8-2.9,28.3c-0.3,6.8,5.6,10.9,13.2,10.1c1.3-0.1,2.6-0.5,5.2-1c0.3,4.3,1.4,8.4,0.8,12.3
			c-1.8,12.4-11.1,14.9-21.6,12.8c-8.4-1.6-16.7-3.4-25.1-5.1c1.4-2.7,3.3-5.9,4.7-9.4c0.4-1-0.6-2.5-1-3.8c-1,0.6-2.5,0.9-3.1,1.8
			c-5,7.6-12,12.2-21.1,10.3c-8.8-1.9-14.4-8.5-17.4-17c-0.5-1.6-0.8-3.2-1.2-5.1c5.5-2.1,10.4-4.6,8.9-10.5
			c10.4-6.8,20.4-13.1,30.2-19.8c7-4.8,13.2-10.7,20.4-15.1c7.9-4.9,26.1-6,35.3,4.3c4.6,5.2,7.5,12.1,10.8,18.4
			c5.3,10.1,9.8,20.7,15.6,30.6c3.1,5.3,7.6,10.3,12.4,14.2c18.2,14.6,39.1,20.9,62.4,18.6c15.6-1.6,31.1-3.3,46.6-5.5
			c6.2-0.9,12.3-2.7,18.3-4.7c22.3-7.4,44.8-13.8,68.1-17.4c17.7-2.7,36.9,10.1,41.4,28.3c1.7,6.7,2.7,13.7,3,20.6
			c0.4,10.2-5.1,18.8-9.3,27.6c-3.3,7-8.5,13.2-8.3,21.6c0.1,5.8,2.2,10.5,6.4,14.6c1.1,1,1.7,3.6,1.2,5
			c-5.1,14.6-10.4,29.1-15.9,43.5c-4,10.5-8.2,21-12.6,31.3c-1,2.3-3.3,4.6-5.6,5.5c-2.7,1.1-6.1,0.7-9.2,1
			C764.6,543.2,764.3,542.7,763.9,542.2z M490.1,308.9c1.3,2.7,2,6.6,4.2,7.7c2.1,1.1,6.1,0.1,8.6-1.3c4.8-2.8,7-12.6,4.2-17.4
			c-0.7-1.2-2.4-2.3-3.8-2.6C496.6,293.8,491.1,299.9,490.1,308.9z"/>
		<path class="st0" d="M818,363.2c-3.6-4.6-6.6-8.6-9.9-12.8c15.1-15.7,15.4-35,11.6-54.7c-3.3-17.2-19.7-37.2-43.9-38
			c4.5-1.2,9.2-3.8,13.5-3.2c8.2,1.1,16.8,3,24.2,6.6c11.1,5.4,15.3,16.9,19,27.7c7.6,22.4,6.4,44.3-6.6,64.7
			C823.6,356.8,820.7,359.7,818,363.2z"/>
		<path class="st0" d="M758,468.2c5,2.5,9.4,4.7,13.9,7c-3.9,8.6-7.6,16.7-11.2,24.9c-2.5,5.6-5.4,11.1-7.3,17
			c-2.2,6.7-6.4,9.2-14.5,8c1.8-1.9,3.2-3.2,4.2-4.7c0.6-0.9,0.7-2.2,1.1-3.4c-1.2,0-2.8-0.5-3.4,0.1c-1.7,1.6-4,3.6-4.4,5.7
			c-0.9,4.8-3.6,4.2-7.1,3.5c0.1-4.2,2-7.1,5.5-8.9c7.2-3.8,11.5-9.9,13.8-17.5C751.6,489.4,754.7,479.1,758,468.2z"/>
		<path class="st0" d="M565.5,539.1c1.5-2.3,2.4-3.9,3.4-5.5c0.8-1.2,1.7-2.3,2.5-3.5c-1.5-0.4-3.1-0.8-4.6-1.2
			c0.4,0.4,0.7,0.8,1.1,1.2c4.3-7,8.7-14,12.7-20.6c4,6.4,4.8,15.5,0.4,20.5C577.2,534.4,574.2,540.5,565.5,539.1z"/>
		<path d="M490.1,308.9c0.9-9,6.5-15.1,13.2-13.7c1.4,0.3,3.1,1.4,3.8,2.6c2.8,4.8,0.6,14.7-4.2,17.4c-2.4,1.4-6.4,2.4-8.6,1.3
			C492.1,315.5,491.4,311.6,490.1,308.9z"/>
	</g>
</g>
</svg>
